<?xml version="1.0" encoding="UTF-8"?>
<svg viewBox="0 0 127.15 137" xmlns="http://www.w3.org/2000/svg">
 <defs>
  <linearGradient id="k" x1=".50045" x2=".50045" y1="4.2257" y2="-8.1883">
   <stop stop-color="#c2ef20" offset="0"/>
   <stop stop-color="#0a5116" offset="1"/>
  </linearGradient>
  <linearGradient id="l" x1=".5022" x2=".5022" y1="4.785" y2="-9.1894">
   <stop stop-color="#76aa04" offset="0"/>
   <stop stop-color="#063903" offset="1"/>
  </linearGradient>
  <linearGradient id="j" x1=".50054" x2=".50054" y1="2.3916" y2="-4.6216">
   <stop stop-color="#9cd305" offset="0"/>
   <stop stop-color="#084703" offset="1"/>
  </linearGradient>
  <linearGradient id="h" x1=".47968" x2=".47968" y1="125.24" y2="-234.65">
   <stop stop-color="#fff" offset="0"/>
   <stop stop-color="#7f6400" offset="1"/>
  </linearGradient>
  <linearGradient id="g" x1=".51163" x2=".51163" y1="312.66" y2="-582.52">
   <stop stop-color="#fff" offset="0"/>
   <stop stop-color="#0d56ac" offset="1"/>
  </linearGradient>
  <linearGradient id="i" x1=".50861" x2=".50861" y1="452.22" y2="-840.81">
   <stop stop-color="#fff" offset="0"/>
   <stop stop-color="#0d56ac" offset="1"/>
  </linearGradient>
 </defs>
 <path d="m144.83 11.664c-0.10599 7e-3 -0.10599 7e-3 0 0m4.044-0.032c0.112 0.007999 0.112 0.007999 0 0m-3.638-1e-3c-0.186 0.014-0.186 0.014 0 0m3.214-0.023c0.21701 0.012997 0.21701 0.012997 0 0m-2.797-2e-3c-0.25 0.014999-0.25 0.014999 0 0m2.379-0.018c0.272 0.011997 0.272 0.011997 0 0m-1.962 0c-0.29398 0.011997-0.29398 0.011997 0 0m1.516-0.012c0.34399 7e-3 0.34399 7e-3 0 0m-1.067 0c-0.36798 7e-3 -0.36798 7e-3 0 0m0.525-6e-3c-1.441 0 1.437 0 0 0" fill="url(#g)"/>
 <path d="m113.54 27.623c-0.050995 0.006001-0.050995 0.006001 0 0m0.38-0.062c-0.061996 7e-3 -0.061996 7e-3 0 0m0.362-0.054c-0.044998 0.006001-0.044998 0.006001 0 0m1.102-0.132c-0.222 0.022999-0.222 0.022999 0 0m0.401-0.037c-0.254 0.022999-0.254 0.022999 0 0m4.02-0.026c0.104 0.006001 0.104 0.006001 0 0m-3.619-3e-3c-0.27101 0.018002-0.27101 0.018002 0 0m3.195-0.023c0.214 0.012001 0.214 0.012001 0 0m-2.782-2e-3c-0.296 0.016998-0.296 0.016998 0 0m2.364-0.018c0.27 0.012001 0.27 0.012001 0 0m-1.952 0c-0.319 0.012001-0.319 0.012001 0 0m1.505-0.013c0.34302 0.008003 0.34302 0.008003 0 0m-1.06 0c-0.38199 0.008003-0.38199 0.008003 0 0m0.517-6e-3c-1.443 0 1.444 0 0 0" fill="url(#h)"/>
 <path d="m121.18 85.675c0 19.394-18.681 26.148-35.311 25.663-18.618-0.543-34.455-10.404-31.796-30.811 2.264-17.374 16.053-37.17 35.507-35.912 19.872 1.288 31.6 23.08 31.6 41.06" fill="#9cd305"/>
 <path d="m88.879 44.312c-18.916 0-31.723 19.841-33.261 36.897-1.804 20.018 15.444 28.405 33.119 28.405-15.98 0-32.966-7.185-32.102-25.6 0.797-17.034 13.305-37.437 32.229-37.437 18.104 0 29.795 18.673 31.227 34.949 1.709 19.408-13.796 28.087-31.339 28.087 16.974 0.013 33.435-7.93 32.617-27.051-0.748-17.495-12.957-38.25-32.49-38.25" fill="#c2ef20"/>
 <path d="m67.553 54.259c-0.56401 0.626-0.002014-9.99e-4 0 0m18.969-11.227c-0.295 0.027-0.295 0.027 0 0m0.386-0.032c-0.272 0.019997-0.272 0.019997 0 0m3.897-6e-3c19.537 1.426 30.988 23.454 30.988 41.596 0 17.505-15.693 24.942-31.196 25.383-15.172 0.42999-34.336-5.098-35.469-23.048-1.169-18.559 11.541-41.83 31.036-43.858-20.311 2.106-34.086 26.161-31.945 45.212 2.007 17.849 21.471 23.189 36.744 22.688 19.504-0.64 34.058-11.74 31.45-32.444-2.071-16.454-13.721-34.185-31.608-35.529m-3.507-0.02c-0.25601 0.016998-0.25601 0.016998 0 0m3.164-2e-3c0.351 0.024002 0.351 0.024002 0 0m-2.771-0.019c-0.229 0.011993-0.229 0.011993 0 0m2.395 0c0.287 0.013 0.287 0.013 0 0m-1.995-0.016c-0.214 0.008003-0.214 0.008003 0 0m1.603 0c0.25299 0.011002 0.25299 0.011002 0 0m-0.395-9e-3c0.18201 0.003998 0.18201 0.003998 0 0m-0.81 0c-0.15199 0.003998-0.15199 0.003998 0 0" fill="#76aa04"/>
 <path d="m88.826 100.54c-11.241 0-24.816-1.683-33.014-10.285 5.414 26.937 59.456 26.986 65.14 0.189-7.959 8.461-21.145 10.096-32.126 10.096" fill="#7ec405"/>
 <path d="m88.879 43.944c18.348 0 30.211 18.921 31.665 35.421 1.654 18.785-12.677 27.96-29.947 28.468-15.425 0.453-34.447-5.576-34.447-23.979 0-17.404 11.975-38.542 31.045-39.854-19.017 1.284-31.285 21.822-32.076 39.22-0.911 20.078 18.337 27.238 35.478 26.752 16.668-0.474 31.945-8.861 31.154-27.346-0.759-17.702-13.116-38.682-32.872-38.682" fill="#76aa04"/>
 <path d="m86.301 43.052c-0.183 0.018997-0.183 0.018997 0 0m0.402-0.036c-0.241 0.023003-0.241 0.023003 0 0m4.022-0.027c0.10599 0.007004 0.10599 0.007004 0 0m-3.619-3e-3c-0.265 0.018997-0.265 0.018997 0 0m3.195-0.023c0.215 0.013 0.215 0.013 0 0m-2.781-2e-3c-0.296 0.017998-0.296 0.017998 0 0m2.364-0.016c0.269 0.011002 0.269 0.011002 0 0m-1.953-2e-3c-0.32001 0.013-0.32001 0.013 0 0m1.505-0.012c0.34399 0.007004 0.34399 0.007004 0 0m-1.061 0c-0.379 0.007004-0.379 0.007004 0 0m0.52-6e-3c-1.442 0 1.437 0 0 0" fill="url(#i)"/>
 <path d="m88.866 46.579c-7.707 0-14.819 3.819-20.125 9.229 4.788 5.705 12.174 8.771 19.559 8.771 7.026 0 14.041-2.768 18.836-7.971 4.146-4.497-14.695-10.029-18.27-10.029m0.029-2.38c-3.892 0-7.742 0.932-11.255 2.591-1.094 0.518-10.819 6.496-10.042 7.531 11.819-12.438 29.759-13.122 41.817-0.635 0.60998-0.991-7.195-5.841-8.014-6.277-3.844-2.046-8.142-3.21-12.506-3.21" fill="url(#j)"/>
 <path d="m88.879 44.312c-4.01 0-24.454 6.34-20.139 11.495 11.269-11.487 28.084-12.1 39.56-0.567 4.128-5.253-15.486-10.928-19.421-10.928" fill="url(#k)"/>
 <path d="m87.195 44c-2.395 0.161-21.988 6.878-19.643 10.259 5.098-5.567 11.989-9.731 19.643-10.259m2.106-0.051c7.798 0.13 14.923 4.052 20.151 9.678 0.77701-1.197-7.099-5.999-8.236-6.593-3.679-1.916-7.762-3.018-11.915-3.085m-0.422-5e-3c0.561 0.005997 0.561 0.005997 0 0" fill="url(#l)"/>
 <path d="m111.73 27.378c0 28.5-45.745 28.5-45.745 0 0-28.502 45.745-28.5 45.745 0" fill="#9cd305"/>
 <path d="m73.515 19.13c5.099-5.981 13.903-7.535 21.268-5.69 8.458 2.119 12.836 8.799 14.121 17.09 1.861-11.988-8.225-22.393-20.051-22.393-11.846 0-21.896 10.411-20.051 22.402 0.618-4.02 2.036-8.272 4.713-11.409" fill="#c2ef20"/>
 <path d="m103.34 38.294c-2.039 1.692-3.757 1.043-5.989 0.178-4.394-1.704-9.074-1.798-13.646-0.772-2.975 0.667-6.551 2.211-9.428 0.417-4.273-2.665-6.863-8.581-7.473-13.381-1.793 13.718 10.484 25.003 23.872 23.955 12.074-0.945 21.789-11.712 20.23-23.958-0.68399 5.295-3.468 10.161-7.566 13.561" fill="#7ec405"/>
 <path d="m65.346 27.378c0 30.508 49.382 28.464 46.943-1.764-2.263-28.07-46.943-26.491-46.943 1.764m7.782 15.12c-20.717-19.92 11.573-49.342 31.443-30.235 20.597 19.806-11.447 49.447-31.443 30.235" fill="#76aa04"/>
 <path d="m95.308 34.306c-0.10602 0.007004-0.10602 0.007004 0 0m4.044-0.032c0.112 0.007996 0.112 0.007996 0 0m-3.638-1e-3c-0.18597 0.014008-0.18597 0.014008 0 0m3.214-0.023c0.21704 0.013 0.21704 0.013 0 0m-2.797-2e-3c-0.25 0.014999-0.25 0.014999 0 0m2.379-0.018c0.27197 0.012009 0.27197 0.012009 0 0m-1.962 0c-0.29401 0.012009-0.29401 0.012009 0 0m1.516-0.012c0.34399 0.007004 0.34399 0.007004 0 0m-1.067 0c-0.36804 0.007004-0.36804 0.007004 0 0m0.525-6e-3c-1.441 0 1.437 0 0 0" fill="url(#g)"/>
 <path d="m64.013 50.265c-0.051025 0.005997-0.051025 0.005997 0 0m0.38-0.062c-0.062012 0.006989-0.062012 0.006989 0 0m0.362-0.054c-0.045044 0.005997-0.045044 0.005997 0 0m1.102-0.132c-0.22198 0.022995-0.22198 0.022995 0 0m0.401-0.037c-0.25403 0.022995-0.25403 0.022995 0 0m4.02-0.026c0.10394 0.005997 0.10394 0.005997 0 0m-3.619-3e-3c-0.271 0.018005-0.271 0.018005 0 0m3.195-0.023c0.21399 0.012009 0.21399 0.012009 0 0m-2.782-2e-3c-0.29602 0.016998-0.29602 0.016998 0 0m2.364-0.018c0.27002 0.012009 0.27002 0.012009 0 0m-1.952 0c-0.31903 0.012009-0.31903 0.012009 0 0m1.505-0.013c0.34296 0.008011 0.34296 0.008011 0 0m-1.06 0c-0.38202 0.008011-0.38202 0.008011 0 0m0.517-6e-3c-1.443 0 1.444 0 0 0" fill="url(#h)"/>
 <path d="m71.653 108.32c0 19.394-18.681 26.148-35.311 25.663-18.618-0.54297-34.455-10.404-31.796-30.811 2.264-17.374 16.053-37.17 35.507-35.912 19.872 1.288 31.6 23.08 31.6 41.06" fill="#9cd305"/>
 <path d="m39.356 66.954c-18.916 0-31.723 19.841-33.261 36.897-1.804 20.018 15.444 28.405 33.119 28.405-15.98 0-32.966-7.185-32.102-25.6 0.797-17.034 13.305-37.437 32.229-37.437 18.104 0 29.795 18.673 31.227 34.949 1.709 19.408-13.796 28.087-31.339 28.087 16.974 0.013 33.435-7.93 32.617-27.051-0.74799-17.495-12.957-38.25-32.49-38.25" fill="#c2ef20"/>
 <path d="m18.03 76.901c-0.56396 0.62601-0.001953-0.001007 0 0m18.969-11.227c-0.29498 0.026993-0.29498 0.026993 0 0m0.386-0.032c-0.27203 0.019989-0.27203 0.019989 0 0m3.897-6e-3c19.537 1.426 30.988 23.454 30.988 41.596 0 17.505-15.693 24.942-31.196 25.383-15.172 0.42999-34.336-5.098-35.469-23.048-1.169-18.559 11.541-41.83 31.036-43.858-20.311 2.106-34.086 26.161-31.945 45.212 2.007 17.849 21.471 23.189 36.744 22.688 19.504-0.64002 34.058-11.74 31.45-32.444-2.071-16.454-13.721-34.185-31.608-35.529m-3.507-0.02c-0.25598 0.016998-0.25598 0.016998 0 0m3.164-2e-3c0.35101 0.024002 0.35101 0.024002 0 0m-2.771-0.019c-0.229 0.011993-0.229 0.011993 0 0m2.395 0c0.28699 0.013 0.28699 0.013 0 0m-1.995-0.016c-0.21399 0.008011-0.21399 0.008011 0 0m1.603 0c0.25299 0.011002 0.25299 0.011002 0 0m-0.395-9e-3c0.18201 0.003998 0.18201 0.003998 0 0m-0.81 0c-0.15204 0.003998-0.15204 0.003998 0 0" fill="#76aa04"/>
 <path d="m39.303 123.18c-11.241 0-24.816-1.683-33.014-10.285 5.414 26.937 59.456 26.986 65.14 0.18903-7.959 8.461-21.145 10.096-32.126 10.096" fill="#7ec405"/>
 <path d="m39.356 66.586c18.348 0 30.211 18.921 31.665 35.421 1.654 18.785-12.677 27.96-29.947 28.468-15.425 0.453-34.447-5.576-34.447-23.979 0-17.404 11.975-38.542 31.045-39.854-19.017 1.284-31.285 21.822-32.076 39.22-0.91101 20.078 18.337 27.238 35.478 26.752 16.668-0.474 31.945-8.861 31.154-27.346-0.75897-17.702-13.116-38.682-32.872-38.682" fill="#76aa04"/>
 <path d="m36.778 65.694c-0.18304 0.018997-0.18304 0.018997 0 0m0.402-0.036c-0.24103 0.02301-0.24103 0.02301 0 0m4.022-0.027c0.10602 0.007004 0.10602 0.007004 0 0m-3.619-3e-3c-0.26502 0.019012-0.26502 0.019012 0 0m3.195-0.023c0.21497 0.013 0.21497 0.013 0 0m-2.781-2e-3c-0.29602 0.018005-0.29602 0.018005 0 0m2.364-0.016c0.26904 0.010986 0.26904 0.010986 0 0m-1.953-2e-3c-0.31995 0.013-0.31995 0.013 0 0m1.505-0.012c0.34399 0.007004 0.34399 0.007004 0 0m-1.061 0c-0.37903 0.007004-0.37903 0.007004 0 0m0.52-6e-3c-1.442 0 1.437 0 0 0" fill="url(#i)"/>
 <path d="m39.343 69.221c-7.707 0-14.819 3.819-20.125 9.229 4.788 5.705 12.174 8.771 19.559 8.771 7.026 0 14.041-2.768 18.836-7.971 4.146-4.497-14.695-10.029-18.27-10.029m0.029-2.38c-3.892 0-7.742 0.93199-11.255 2.591-1.094 0.51799-10.819 6.496-10.042 7.531 11.819-12.438 29.759-13.122 41.817-0.635 0.61005-0.991-7.195-5.841-8.014-6.277-3.844-2.046-8.142-3.21-12.506-3.21" fill="url(#j)"/>
 <path d="m39.356 66.954c-4.01 0-24.454 6.34-20.139 11.495 11.269-11.487 28.084-12.1 39.56-0.56702 4.128-5.253-15.486-10.928-19.421-10.928" fill="url(#k)"/>
 <path d="m37.672 66.642c-2.395 0.16101-21.988 6.878-19.643 10.259 5.098-5.567 11.989-9.731 19.643-10.259m2.106-0.051c7.798 0.13 14.923 4.052 20.151 9.678 0.77698-1.197-7.099-5.999-8.236-6.593-3.679-1.916-7.762-3.018-11.915-3.085m-0.422-5e-3c0.56097 0.005997 0.56097 0.005997 0 0" fill="url(#l)"/>
 <path d="m62.203 50.02c0 28.5-45.745 28.5-45.745 0 0-28.502 45.745-28.5 45.745 0" fill="#9cd305"/>
 <path d="m23.992 41.772c5.099-5.981 13.903-7.535 21.268-5.69 8.458 2.119 12.836 8.799 14.121 17.09 1.861-11.988-8.225-22.393-20.051-22.393-11.846 0-21.896 10.411-20.051 22.402 0.61798-4.02 2.036-8.272 4.713-11.409" fill="#c2ef20"/>
 <path d="m53.816 60.936c-2.039 1.692-3.757 1.043-5.989 0.17799-4.394-1.704-9.074-1.798-13.646-0.772-2.975 0.66701-6.551 2.211-9.428 0.41701-4.273-2.665-6.863-8.581-7.473-13.381-1.793 13.718 10.484 25.003 23.872 23.955 12.074-0.94501 21.789-11.712 20.23-23.958-0.68396 5.295-3.468 10.161-7.566 13.561" fill="#7ec405"/>
 <path d="m15.823 50.02c0 30.508 49.382 28.464 46.943-1.764-2.263-28.07-46.943-26.491-46.943 1.764m7.782 15.12c-20.717-19.92 11.573-49.342 31.443-30.235 20.597 19.806-11.447 49.447-31.443 30.235" fill="#76aa04"/>
</svg>
